<?xml version="1.0" encoding="UTF-8"?>
<svg xmlns="http://www.w3.org/2000/svg" width="2048" height="2048" viewBox="0 0 2048 2048">
  <g fill-rule="evenodd">
    <path d="M 499.00 862.50 L 482.50 836.00 L 458.50 778.00 L 442.50 721.00 L 436.50 687.00 L 434.50 656.00 L 432.50 652.00 L 430.50 593.00 L 434.50 537.00 L 442.50 489.00 L 462.50 421.00 L 482.50 372.00 L 504.50 330.00 L 534.50 284.00 L 566.50 244.00 L 601.00 208.50 L 665.00 156.50 L 712.00 126.50 L 751.00 106.50 L 789.00 90.50 L 845.00 72.50 L 887.00 64.50 L 889.00 62.50 L 947.00 54.50 L 1051.00 54.50 L 1114.00 62.50 L 1167.00 74.50 L 1249.00 104.50 L 1292.00 126.50 L 1337.00 154.50 L 1377.00 184.50 L 1410.50 215.00 L 1410.50 218.00 L 1407.00 220.50 L 1345.00 220.50 L 1323.00 200.50 L 1285.00 172.50 L 1251.00 152.50 L 1210.00 132.50 L 1165.00 114.50 L 1125.00 102.50 L 1051.00 90.50 L 967.00 90.50 L 915.00 96.50 L 868.00 106.50 L 833.00 116.50 L 783.00 136.50 L 751.00 152.50 L 708.00 178.50 L 648.00 226.50 L 612.50 262.00 L 588.50 290.00 L 544.50 357.00 L 528.50 389.00 L 510.50 435.00 L 492.50 509.00 L 486.50 557.00 L 485.50 585.00 L 486.50 662.00 L 488.50 666.00 L 490.50 697.00 L 496.50 722.00 L 498.50 846.00 L 500.50 851.00 L 499.00 862.50 Z M 1157.00 767.50 L 1152.50 765.00 L 1152.50 378.00 L 1150.00 375.50 L 1116.00 398.50 L 1077.00 410.50 L 1029.00 412.50 L 998.00 406.50 L 961.00 390.50 L 941.00 376.50 L 924.50 361.00 L 902.50 330.00 L 888.50 293.00 L 884.50 270.00 L 886.50 227.00 L 896.50 194.00 L 910.50 168.00 L 920.50 155.00 L 944.00 132.50 L 979.00 112.50 L 1004.00 104.50 L 1025.00 100.50 L 1059.00 100.50 L 1095.00 108.50 L 1135.00 128.50 L 1170.50 160.00 L 1186.50 183.00 L 1198.50 209.00 L 1204.50 232.00 L 1206.50 261.00 L 1202.50 293.00 L 1192.50 322.00 L 1174.50 351.00 L 1158.50 368.00 L 1161.00 370.50 L 1264.50 371.00 L 1264.50 721.00 L 1197.00 746.50 L 1157.00 767.50 Z M 1058.50 376.00 L 1060.50 374.00 L 1060.50 352.00 L 1073.00 350.50 L 1082.00 346.50 L 1091.00 340.50 L 1104.50 326.00 L 1110.50 313.00 L 1112.50 290.00 L 1108.50 276.00 L 1095.00 260.50 L 1082.00 252.50 L 1051.00 242.50 L 1034.00 234.50 L 1022.50 224.00 L 1018.50 216.00 L 1020.50 196.00 L 1031.00 184.50 L 1042.00 180.50 L 1055.00 180.50 L 1068.00 186.50 L 1078.50 200.00 L 1079.50 210.00 L 1082.00 212.50 L 1106.00 212.50 L 1108.50 210.00 L 1106.50 192.00 L 1098.50 177.00 L 1084.00 164.50 L 1062.00 159.50 L 1059.50 157.00 L 1060.50 137.00 L 1051.00 133.50 L 1041.00 134.50 L 1038.50 137.00 L 1037.00 158.50 L 1016.00 162.50 L 1006.00 168.50 L 994.50 181.00 L 986.50 204.00 L 986.50 219.00 L 992.50 234.00 L 1004.00 246.50 L 1018.00 254.50 L 1055.00 266.50 L 1074.00 278.50 L 1080.50 291.00 L 1078.50 311.00 L 1072.50 320.00 L 1064.00 326.50 L 1043.00 330.50 L 1024.00 324.50 L 1016.50 317.00 L 1010.50 305.00 L 1010.50 293.00 L 1008.00 290.50 L 985.00 290.50 L 982.50 293.00 L 982.50 299.00 L 988.50 321.00 L 996.50 333.00 L 1015.00 346.50 L 1028.00 350.50 L 1037.00 350.50 L 1038.50 374.00 L 1041.00 376.50 L 1058.50 376.00 Z M 1497.00 897.50 L 1494.50 896.00 L 1496.50 878.00 L 1496.50 790.00 L 1506.50 765.00 L 1518.50 718.00 L 1526.50 660.00 L 1526.50 575.00 L 1524.50 556.00 L 1510.50 485.00 L 1486.50 414.00 L 1458.50 359.00 L 1434.50 322.00 L 1414.50 297.00 L 1415.00 222.50 L 1418.00 222.50 L 1434.50 239.00 L 1474.50 290.00 L 1504.50 337.00 L 1528.50 383.00 L 1542.50 417.00 L 1556.50 460.00 L 1566.50 501.00 L 1572.50 536.00 L 1572.50 548.00 L 1574.50 551.00 L 1574.50 567.00 L 1576.50 571.00 L 1576.50 651.00 L 1572.50 693.00 L 1566.50 725.00 L 1554.50 771.00 L 1538.50 816.00 L 1514.50 867.00 L 1497.00 897.50 Z M 1032.00 1096.50 L 960.00 1096.50 L 948.00 1094.50 L 895.00 1056.50 L 826.00 1018.50 L 775.00 998.50 L 724.00 984.50 L 691.00 978.50 L 677.00 978.50 L 674.00 976.50 L 605.00 974.50 L 562.00 978.50 L 527.00 984.50 L 517.00 988.50 L 508.00 988.50 L 506.50 602.00 L 562.50 602.00 L 563.50 940.00 L 569.00 942.50 L 572.00 940.50 L 594.00 938.50 L 665.00 936.50 L 727.00 942.50 L 783.00 954.50 L 833.00 970.50 L 858.00 982.50 L 860.50 980.00 L 857.00 976.50 L 808.00 946.50 L 771.00 930.50 L 740.00 920.50 L 698.00 910.50 L 659.00 906.50 L 656.00 904.50 L 582.50 902.00 L 582.50 517.00 L 585.00 514.50 L 590.00 514.50 L 595.00 516.50 L 621.00 516.50 L 625.00 518.50 L 654.00 520.50 L 709.00 532.50 L 741.00 542.50 L 805.00 570.50 L 823.00 580.50 L 870.00 613.50 L 872.50 611.00 L 874.00 538.50 L 980.00 538.50 L 982.50 1030.00 L 985.00 1032.50 L 1019.00 1000.50 L 1077.00 954.50 L 1107.00 934.50 L 1167.00 902.50 L 1196.00 890.50 L 1255.00 872.50 L 1307.00 862.50 L 1359.00 859.50 L 1365.50 856.00 L 1365.50 704.00 L 1363.00 701.50 L 1342.00 704.50 L 1292.00 715.50 L 1288.50 713.00 L 1288.50 230.00 L 1397.00 228.50 L 1400.50 901.00 L 1398.00 903.50 L 1364.00 902.50 L 1316.00 906.50 L 1254.00 918.50 L 1221.00 928.50 L 1177.00 946.50 L 1143.00 964.50 L 1120.50 980.00 L 1123.00 982.50 L 1150.00 970.50 L 1207.00 952.50 L 1269.00 940.50 L 1322.00 937.50 L 1394.00 938.50 L 1419.00 941.50 L 1422.50 939.00 L 1422.50 600.00 L 1482.00 598.50 L 1484.50 602.00 L 1482.50 988.00 L 1479.00 989.50 L 1462.00 984.50 L 1425.00 978.50 L 1372.00 974.50 L 1306.00 976.50 L 1249.00 986.50 L 1190.00 1004.50 L 1125.00 1034.50 L 1094.00 1052.50 L 1032.00 1096.50 Z M 1011.00 868.50 L 1006.50 867.00 L 1006.50 467.00 L 1034.00 464.50 L 1118.00 464.50 L 1120.50 467.00 L 1122.50 779.00 L 1058.00 828.50 L 1011.00 868.50 Z M 934.50 980.00 L 936.50 978.00 L 936.50 733.00 L 932.50 726.00 L 912.50 702.00 L 875.00 666.50 L 847.00 644.50 L 804.00 616.50 L 769.00 598.50 L 712.00 576.50 L 667.00 564.50 L 631.00 559.50 L 628.50 562.00 L 628.50 856.00 L 631.00 858.50 L 680.00 862.50 L 731.00 872.50 L 808.00 898.50 L 862.00 926.50 L 903.00 954.50 L 934.50 980.00 Z M 604.00 930.50 L 583.00 930.50 L 578.50 923.00 L 578.50 917.00 L 584.00 914.50 L 595.00 918.50 L 604.50 926.00 L 604.00 930.50 Z M 1406.00 930.50 L 1383.00 930.50 L 1382.50 926.00 L 1402.00 914.50 L 1406.00 914.50 L 1406.00 930.50 Z M 1040.00 1150.50 L 943.00 1150.50 L 904.00 1146.50 L 829.00 1132.50 L 782.00 1118.50 L 731.00 1098.50 L 670.00 1066.50 L 611.00 1026.50 L 576.00 996.50 L 571.50 990.00 L 604.00 986.50 L 657.00 988.50 L 716.00 1030.50 L 790.00 1068.50 L 841.00 1086.50 L 884.00 1096.50 L 919.00 1100.50 L 947.00 1114.50 L 976.00 1118.50 L 1023.00 1116.50 L 1036.00 1112.50 L 1054.00 1102.50 L 1108.00 1094.50 L 1169.00 1076.50 L 1236.00 1046.50 L 1267.00 1028.50 L 1324.00 988.50 L 1361.00 986.50 L 1404.50 990.00 L 1394.00 1002.50 L 1371.00 1022.50 L 1328.00 1054.50 L 1283.00 1082.50 L 1237.00 1104.50 L 1152.00 1132.50 L 1104.00 1142.50 L 1040.00 1150.50 Z M 704.00 1694.50 L 683.00 1692.50 L 673.00 1673.50 L 645.00 1673.50 L 640.50 1678.00 L 636.00 1692.50 L 612.50 1692.00 L 620.50 1669.00 L 649.00 1606.50 L 668.00 1604.50 L 672.50 1609.00 L 706.50 1689.00 L 704.00 1694.50 Z M 767.00 1695.50 L 750.00 1694.50 L 733.00 1686.50 L 720.50 1672.00 L 714.50 1652.00 L 716.50 1637.00 L 724.50 1621.00 L 736.00 1610.50 L 751.00 1604.50 L 774.00 1604.50 L 780.00 1606.50 L 787.00 1610.50 L 797.50 1622.00 L 797.50 1625.00 L 786.00 1634.50 L 781.00 1634.50 L 770.00 1624.50 L 755.00 1624.50 L 744.50 1632.00 L 740.50 1640.00 L 740.50 1659.00 L 751.00 1672.50 L 770.00 1674.50 L 788.00 1665.50 L 798.50 1676.00 L 796.50 1682.00 L 785.00 1690.50 L 767.00 1695.50 Z M 895.00 1693.50 L 879.00 1692.50 L 869.00 1673.50 L 841.00 1673.50 L 836.50 1679.00 L 832.00 1692.50 L 808.50 1692.00 L 842.50 1609.00 L 846.00 1605.50 L 865.00 1604.50 L 868.50 1609.00 L 902.50 1688.00 L 902.00 1692.50 L 895.00 1693.50 Z M 1280.00 1693.50 L 1263.00 1693.50 L 1258.50 1691.00 L 1258.50 1660.00 L 1226.50 1609.00 L 1228.00 1606.50 L 1252.00 1606.50 L 1271.00 1637.50 L 1290.00 1606.50 L 1312.00 1604.50 L 1314.50 1606.00 L 1314.50 1611.00 L 1282.50 1660.00 L 1282.50 1692.00 L 1280.00 1693.50 Z M 943.00 1693.50 L 920.50 1692.00 L 920.50 1607.00 L 956.00 1605.50 L 974.00 1608.50 L 988.00 1616.50 L 998.50 1630.00 L 1001.50 1647.00 L 1000.50 1662.00 L 994.50 1674.00 L 977.00 1688.50 L 966.00 1692.50 L 943.00 1693.50 Z M 1087.00 1693.50 L 1024.50 1692.00 L 1025.00 1606.50 L 1088.50 1607.00 L 1088.00 1624.50 L 1050.00 1624.50 L 1047.50 1627.00 L 1047.50 1636.00 L 1050.00 1638.50 L 1084.50 1640.00 L 1083.00 1657.50 L 1051.00 1658.50 L 1048.50 1661.00 L 1048.50 1671.00 L 1051.00 1673.50 L 1089.00 1673.50 L 1090.50 1691.00 L 1087.00 1693.50 Z M 1208.00 1693.50 L 1190.00 1693.50 L 1187.50 1691.00 L 1188.50 1665.00 L 1187.50 1651.00 L 1185.00 1648.50 L 1168.50 1676.00 L 1162.00 1679.50 L 1154.50 1675.00 L 1137.00 1647.50 L 1134.50 1650.00 L 1135.50 1691.00 L 1133.00 1693.50 L 1116.00 1693.50 L 1113.50 1667.00 L 1114.50 1607.00 L 1138.00 1606.50 L 1158.50 1640.00 L 1163.00 1643.50 L 1187.00 1606.50 L 1208.00 1605.50 L 1210.50 1608.00 L 1210.50 1691.00 L 1208.00 1693.50 Z M 954.50 1673.00 L 966.00 1670.50 L 974.50 1662.00 L 976.50 1657.00 L 976.50 1639.00 L 963.00 1626.50 L 946.00 1624.50 L 943.50 1627.00 L 944.50 1671.00 L 947.00 1673.50 L 954.50 1673.00 Z M 1353.00 1659.50 L 1348.50 1657.00 L 1348.50 1634.00 L 1352.00 1631.50 L 1587.00 1630.50 L 1651.50 1634.00 L 1643.00 1638.50 L 1597.00 1642.50 L 1593.00 1644.50 L 1353.00 1659.50 Z M 587.00 1659.50 L 393.00 1646.50 L 343.00 1640.50 L 340.00 1638.50 L 326.00 1638.50 L 320.50 1634.00 L 383.00 1631.50 L 587.00 1631.50 L 587.00 1659.50 Z M 664.50 1656.00 L 666.50 1651.00 L 659.00 1637.50 L 654.50 1642.00 L 650.50 1654.00 L 653.00 1656.50 L 664.50 1656.00 Z M 860.50 1656.00 L 862.50 1651.00 L 855.00 1637.50 L 846.50 1654.00 L 849.00 1656.50 L 860.50 1656.00 Z" fill="#C8920A"/>
    <path d="M 1548.00 1374.50 L 1514.00 1374.50 L 1504.00 1372.50 L 1480.00 1364.50 L 1470.50 1357.00 L 1471.00 1308.50 L 1474.00 1308.50 L 1478.50 1313.00 L 1486.50 1332.00 L 1500.00 1346.50 L 1511.00 1352.50 L 1524.00 1354.50 L 1529.00 1358.50 L 1549.00 1352.50 L 1562.50 1341.00 L 1564.50 1336.00 L 1564.50 1322.00 L 1555.00 1310.50 L 1543.00 1302.50 L 1509.00 1286.50 L 1491.00 1274.50 L 1478.50 1262.00 L 1470.50 1245.00 L 1470.50 1232.00 L 1473.50 1229.00 L 1470.50 1226.00 L 1470.50 1221.00 L 1480.50 1202.00 L 1500.00 1186.50 L 1519.00 1180.50 L 1524.00 1180.50 L 1527.00 1183.50 L 1532.00 1179.50 L 1538.00 1179.50 L 1540.00 1183.50 L 1556.00 1180.50 L 1580.00 1186.50 L 1586.50 1191.00 L 1586.50 1236.00 L 1584.00 1238.50 L 1581.00 1238.50 L 1576.50 1233.00 L 1572.50 1220.00 L 1566.50 1212.00 L 1559.00 1204.50 L 1544.00 1198.50 L 1522.00 1202.50 L 1514.50 1209.00 L 1508.50 1221.00 L 1514.50 1233.00 L 1522.00 1240.50 L 1585.00 1276.50 L 1600.50 1294.00 L 1606.50 1310.00 L 1606.50 1329.00 L 1596.50 1350.00 L 1579.00 1364.50 L 1548.00 1374.50 Z M 824.00 1374.50 L 788.00 1374.50 L 786.00 1372.50 L 770.00 1370.50 L 752.00 1362.50 L 737.00 1352.50 L 720.50 1335.00 L 710.50 1318.00 L 704.50 1299.00 L 702.50 1284.00 L 704.50 1255.00 L 716.50 1225.00 L 726.50 1212.00 L 744.00 1196.50 L 764.00 1186.50 L 774.00 1185.50 L 777.00 1182.50 L 782.00 1184.50 L 790.00 1180.50 L 793.00 1184.50 L 796.00 1184.50 L 800.00 1180.50 L 815.00 1180.50 L 818.00 1183.50 L 828.00 1180.50 L 860.00 1188.50 L 870.50 1194.00 L 868.50 1197.00 L 870.50 1200.00 L 868.50 1224.00 L 871.50 1230.00 L 871.50 1243.00 L 869.00 1246.50 L 862.50 1244.00 L 854.50 1225.00 L 841.00 1208.50 L 826.00 1199.50 L 822.00 1200.50 L 818.00 1197.50 L 798.00 1197.50 L 779.00 1206.50 L 762.50 1225.00 L 754.50 1244.00 L 751.50 1270.00 L 754.50 1307.00 L 758.50 1319.00 L 768.50 1336.00 L 786.00 1350.50 L 818.00 1358.50 L 823.00 1354.50 L 833.00 1352.50 L 845.00 1346.50 L 864.50 1325.00 L 872.50 1301.00 L 879.50 1301.00 L 880.50 1341.00 L 878.50 1344.00 L 858.00 1362.50 L 840.00 1370.50 L 824.00 1374.50 Z M 673.00 1371.50 L 640.00 1371.50 L 632.00 1367.50 L 629.00 1370.50 L 591.00 1370.50 L 588.00 1367.50 L 578.00 1367.50 L 575.00 1370.50 L 509.00 1370.50 L 489.00 1360.50 L 478.50 1346.00 L 450.50 1294.00 L 436.50 1279.00 L 439.00 1274.50 L 443.00 1279.50 L 448.00 1272.50 L 461.00 1268.50 L 474.50 1254.00 L 478.50 1241.00 L 479.50 1231.00 L 472.50 1214.00 L 458.00 1201.50 L 452.00 1200.50 L 435.00 1200.50 L 431.50 1204.00 L 431.50 1348.00 L 432.50 1355.00 L 438.00 1360.50 L 444.00 1362.50 L 448.50 1369.00 L 426.00 1370.50 L 423.00 1368.50 L 415.00 1370.50 L 411.00 1367.50 L 408.00 1370.50 L 370.00 1370.50 L 369.50 1365.00 L 384.50 1354.00 L 384.50 1350.00 L 388.50 1345.00 L 386.50 1343.00 L 386.50 1210.00 L 388.50 1207.00 L 384.50 1202.00 L 384.50 1198.00 L 379.00 1192.50 L 371.00 1190.50 L 368.50 1184.00 L 474.00 1182.50 L 491.00 1186.50 L 506.00 1194.50 L 518.50 1208.00 L 522.50 1216.00 L 526.50 1239.00 L 518.50 1262.00 L 506.00 1274.50 L 494.00 1280.50 L 491.50 1284.00 L 534.50 1349.00 L 542.00 1356.50 L 556.00 1364.50 L 566.50 1356.00 L 568.50 1351.00 L 568.50 1202.00 L 562.00 1193.50 L 554.50 1189.00 L 553.50 1185.00 L 556.00 1182.50 L 679.00 1182.50 L 682.50 1208.00 L 682.50 1225.00 L 679.00 1227.50 L 672.50 1223.00 L 672.50 1219.00 L 666.50 1209.00 L 659.00 1202.50 L 649.00 1200.50 L 613.00 1200.50 L 610.50 1203.00 L 612.50 1206.00 L 613.50 1235.00 L 609.50 1239.00 L 609.50 1257.00 L 614.00 1265.50 L 648.00 1264.50 L 658.50 1256.00 L 663.00 1244.50 L 668.00 1243.50 L 670.50 1246.00 L 669.00 1307.50 L 666.00 1308.50 L 662.50 1306.00 L 658.50 1293.00 L 650.00 1284.50 L 614.00 1284.50 L 610.50 1288.00 L 613.50 1312.00 L 612.50 1349.00 L 616.00 1353.50 L 638.00 1353.50 L 641.00 1357.50 L 643.00 1353.50 L 661.00 1350.50 L 676.50 1340.00 L 690.00 1318.50 L 696.00 1318.50 L 696.50 1340.00 L 692.50 1356.00 L 688.50 1361.00 L 690.50 1366.00 L 688.00 1370.50 L 683.00 1367.50 L 679.00 1369.50 L 675.00 1367.50 L 673.00 1371.50 Z M 1022.00 1371.50 L 1018.00 1367.50 L 1015.00 1369.50 L 1012.00 1367.50 L 1006.00 1369.50 L 1004.00 1367.50 L 999.00 1371.50 L 912.00 1371.50 L 895.00 1370.50 L 896.50 1368.00 L 894.00 1365.50 L 892.00 1370.50 L 888.50 1369.00 L 889.00 1364.50 L 902.50 1357.00 L 907.50 1347.00 L 906.50 1219.00 L 909.50 1214.00 L 909.50 1208.00 L 904.50 1203.00 L 904.50 1198.00 L 890.50 1188.00 L 891.00 1182.50 L 1022.50 1183.00 L 1024.50 1223.00 L 1022.00 1226.50 L 1014.50 1225.00 L 1010.50 1213.00 L 1000.00 1202.50 L 993.00 1200.50 L 952.00 1200.50 L 948.50 1204.00 L 950.50 1209.00 L 950.50 1262.00 L 953.00 1264.50 L 989.00 1264.50 L 998.50 1257.00 L 1004.00 1242.50 L 1009.00 1242.50 L 1011.50 1247.00 L 1011.50 1305.00 L 1009.00 1308.50 L 1001.50 1305.00 L 998.50 1292.00 L 990.00 1284.50 L 953.00 1284.50 L 950.50 1287.00 L 950.50 1351.00 L 953.00 1353.50 L 971.00 1357.50 L 975.00 1353.50 L 998.00 1350.50 L 1014.50 1338.00 L 1026.50 1317.00 L 1033.00 1314.50 L 1034.50 1336.00 L 1032.50 1345.00 L 1029.50 1348.00 L 1030.50 1353.00 L 1027.50 1356.00 L 1026.50 1370.00 L 1022.00 1371.50 Z M 1123.00 1370.50 L 1103.00 1370.50 L 1100.00 1367.50 L 1094.00 1367.50 L 1091.00 1370.50 L 1072.00 1370.50 L 1069.00 1367.50 L 1062.00 1367.50 L 1059.00 1370.50 L 1047.00 1370.50 L 1044.50 1367.00 L 1060.50 1354.00 L 1062.50 1346.00 L 1062.50 1211.00 L 1058.50 1197.00 L 1043.50 1187.00 L 1046.00 1182.50 L 1122.50 1184.00 L 1120.50 1190.00 L 1114.00 1192.50 L 1106.50 1202.00 L 1106.50 1350.00 L 1115.00 1360.50 L 1124.50 1365.00 L 1123.00 1370.50 Z M 1245.00 1371.50 L 1231.00 1370.50 L 1228.00 1367.50 L 1213.00 1367.50 L 1210.00 1370.50 L 1199.00 1367.50 L 1194.00 1367.50 L 1191.00 1370.50 L 1175.00 1370.50 L 1172.50 1368.00 L 1175.00 1363.50 L 1182.00 1360.50 L 1188.50 1353.00 L 1188.50 1203.00 L 1186.00 1200.50 L 1162.00 1200.50 L 1155.00 1202.50 L 1146.50 1209.00 L 1140.50 1219.00 L 1138.50 1228.00 L 1135.00 1232.50 L 1132.00 1232.50 L 1129.50 1230.00 L 1132.00 1182.50 L 1292.50 1184.00 L 1293.50 1230.00 L 1291.00 1234.50 L 1284.50 1231.00 L 1284.50 1226.00 L 1278.50 1213.00 L 1271.00 1204.50 L 1259.00 1200.50 L 1235.00 1200.50 L 1232.50 1203.00 L 1233.50 1209.00 L 1230.50 1213.00 L 1233.50 1217.00 L 1233.50 1343.00 L 1229.50 1346.00 L 1233.50 1349.00 L 1237.00 1358.50 L 1250.50 1365.00 L 1250.50 1370.00 L 1245.00 1371.50 Z M 1427.00 1371.50 L 1421.00 1367.50 L 1418.00 1370.50 L 1384.50 1369.00 L 1385.50 1364.00 L 1394.00 1360.50 L 1401.50 1352.00 L 1396.50 1348.00 L 1386.50 1321.00 L 1382.00 1314.50 L 1325.00 1314.50 L 1310.50 1347.00 L 1310.50 1355.00 L 1319.00 1362.50 L 1324.50 1364.00 L 1326.50 1368.00 L 1324.00 1370.50 L 1321.50 1370.00 L 1322.50 1368.00 L 1320.00 1365.50 L 1315.50 1368.00 L 1317.00 1370.50 L 1269.00 1370.50 L 1266.50 1368.00 L 1268.00 1364.50 L 1280.00 1358.50 L 1286.50 1350.00 L 1358.00 1182.50 L 1363.00 1184.50 L 1371.00 1182.50 L 1374.50 1186.00 L 1446.50 1350.00 L 1454.00 1358.50 L 1466.50 1366.00 L 1465.00 1370.50 L 1440.00 1370.50 L 1437.00 1367.50 L 1433.00 1367.50 L 1427.00 1371.50 Z M 1358.50 1299.00 L 1361.00 1296.50 L 1363.00 1298.50 L 1373.00 1298.50 L 1375.50 1295.00 L 1362.50 1267.00 L 1361.50 1259.00 L 1353.00 1245.50 L 1330.50 1296.00 L 1333.00 1298.50 L 1358.50 1299.00 Z M 1109.00 1413.50 L 1106.50 1411.00 L 1108.50 1406.00 L 1127.00 1382.50 L 1138.00 1382.50 L 1147.00 1386.50 L 1158.50 1388.00 L 1156.00 1394.50 L 1118.00 1412.50 L 1109.00 1413.50 Z M 1653.00 1588.50 L 1618.00 1588.50 L 1612.00 1584.50 L 1606.00 1586.50 L 1593.00 1582.50 L 1590.00 1579.50 L 1582.00 1578.50 L 1571.00 1572.50 L 1568.00 1568.50 L 1562.00 1571.50 L 1547.00 1572.50 L 1536.00 1570.50 L 1504.00 1571.50 L 1505.50 1567.00 L 1502.00 1564.50 L 1497.00 1570.50 L 1496.50 1566.00 L 1505.00 1560.50 L 1508.50 1554.00 L 1498.50 1530.00 L 1492.00 1524.50 L 1448.00 1524.50 L 1438.50 1549.00 L 1440.50 1557.00 L 1450.50 1564.00 L 1445.00 1568.50 L 1324.00 1568.50 L 1299.00 1566.50 L 1291.00 1562.50 L 1280.50 1552.00 L 1260.50 1514.00 L 1252.50 1502.00 L 1245.50 1496.00 L 1249.00 1491.50 L 1258.00 1491.50 L 1270.00 1484.50 L 1278.50 1474.00 L 1280.50 1467.00 L 1278.50 1448.00 L 1270.00 1438.50 L 1260.00 1433.50 L 1247.00 1434.50 L 1244.50 1437.00 L 1244.50 1445.00 L 1242.50 1447.00 L 1242.50 1486.00 L 1244.50 1488.00 L 1241.50 1493.00 L 1243.50 1497.00 L 1241.50 1534.00 L 1244.50 1551.00 L 1256.50 1562.00 L 1256.00 1566.50 L 1254.00 1564.50 L 1249.00 1568.50 L 1210.00 1568.50 L 1205.00 1566.50 L 1196.00 1566.50 L 1194.00 1568.50 L 1151.00 1568.50 L 1149.00 1566.50 L 1135.00 1566.50 L 1134.50 1561.00 L 1144.50 1555.00 L 1144.50 1547.00 L 1136.50 1527.00 L 1133.00 1523.50 L 1088.00 1523.50 L 1084.50 1527.00 L 1076.50 1548.00 L 1077.50 1556.00 L 1086.50 1562.00 L 1086.00 1566.50 L 1028.00 1568.50 L 1014.50 1555.00 L 947.00 1472.50 L 944.50 1475.00 L 944.50 1551.00 L 949.00 1556.50 L 958.00 1560.50 L 960.50 1565.00 L 952.00 1568.50 L 922.00 1568.50 L 919.00 1566.50 L 914.00 1568.50 L 908.50 1566.00 L 908.50 1562.00 L 916.00 1558.50 L 922.50 1552.00 L 924.50 1546.00 L 924.50 1441.00 L 922.50 1432.00 L 917.00 1426.50 L 909.00 1423.50 L 908.50 1420.00 L 913.00 1418.50 L 917.00 1421.50 L 920.00 1418.50 L 924.00 1419.50 L 927.00 1417.50 L 933.00 1419.50 L 941.00 1417.50 L 951.00 1418.50 L 1018.00 1499.50 L 1020.50 1497.00 L 1020.50 1439.00 L 1014.00 1428.50 L 1003.50 1423.00 L 1004.50 1419.00 L 1008.00 1418.50 L 1011.00 1421.50 L 1014.00 1418.50 L 1047.00 1419.50 L 1054.00 1417.50 L 1057.50 1420.00 L 1042.50 1436.00 L 1042.50 1557.00 L 1045.00 1559.50 L 1056.50 1547.00 L 1082.50 1481.00 L 1111.00 1417.50 L 1125.00 1416.50 L 1130.50 1421.00 L 1180.50 1539.00 L 1186.50 1551.00 L 1198.00 1559.50 L 1206.50 1554.00 L 1207.50 1549.00 L 1211.50 1545.00 L 1211.50 1443.00 L 1207.50 1441.00 L 1206.50 1433.00 L 1194.50 1424.00 L 1194.50 1419.00 L 1201.00 1418.50 L 1203.00 1420.50 L 1205.00 1418.50 L 1220.00 1418.50 L 1223.00 1420.50 L 1225.00 1418.50 L 1232.00 1418.50 L 1234.00 1420.50 L 1236.00 1418.50 L 1243.00 1418.50 L 1246.00 1420.50 L 1248.00 1418.50 L 1267.00 1418.50 L 1273.00 1420.50 L 1275.00 1418.50 L 1284.00 1418.50 L 1291.00 1420.50 L 1304.00 1426.50 L 1314.50 1436.00 L 1320.50 1447.00 L 1321.50 1455.00 L 1320.50 1471.00 L 1316.50 1480.00 L 1292.50 1500.00 L 1322.50 1547.00 L 1334.00 1558.50 L 1342.00 1560.50 L 1355.50 1547.00 L 1355.50 1444.00 L 1350.50 1433.00 L 1344.00 1426.50 L 1338.00 1424.50 L 1336.50 1420.00 L 1342.00 1417.50 L 1352.00 1421.50 L 1358.00 1418.50 L 1371.00 1421.50 L 1383.00 1420.50 L 1385.00 1418.50 L 1399.00 1418.50 L 1401.00 1420.50 L 1406.00 1418.50 L 1406.50 1422.00 L 1398.00 1426.50 L 1390.50 1435.00 L 1390.50 1553.00 L 1399.00 1560.50 L 1404.00 1560.50 L 1418.50 1546.00 L 1470.50 1421.00 L 1474.00 1416.50 L 1489.00 1416.50 L 1550.50 1554.00 L 1557.00 1560.50 L 1564.00 1562.50 L 1568.00 1566.50 L 1572.50 1562.00 L 1570.50 1558.00 L 1572.50 1556.00 L 1569.50 1551.00 L 1569.50 1536.00 L 1573.50 1529.00 L 1570.50 1525.00 L 1576.00 1524.50 L 1586.50 1546.00 L 1596.00 1556.50 L 1613.00 1566.50 L 1636.00 1570.50 L 1651.00 1566.50 L 1660.50 1558.00 L 1662.50 1555.00 L 1662.50 1541.00 L 1651.00 1528.50 L 1607.00 1508.50 L 1588.00 1496.50 L 1572.50 1478.00 L 1568.50 1465.00 L 1568.50 1450.00 L 1573.50 1439.00 L 1572.50 1436.00 L 1578.50 1427.00 L 1587.00 1418.50 L 1600.00 1410.50 L 1618.00 1404.50 L 1626.00 1406.50 L 1629.00 1403.50 L 1666.00 1406.50 L 1683.00 1412.50 L 1685.50 1417.00 L 1686.50 1461.00 L 1684.00 1463.50 L 1678.50 1462.00 L 1670.50 1442.00 L 1660.00 1430.50 L 1640.00 1420.50 L 1620.00 1426.50 L 1610.50 1438.00 L 1610.50 1451.00 L 1618.00 1460.50 L 1633.00 1470.50 L 1664.00 1484.50 L 1685.00 1498.50 L 1696.50 1511.00 L 1702.50 1523.00 L 1701.50 1527.00 L 1704.50 1530.00 L 1704.50 1536.00 L 1701.50 1539.00 L 1704.50 1543.00 L 1704.50 1549.00 L 1696.50 1566.00 L 1682.00 1578.50 L 1669.00 1584.50 L 1665.00 1583.50 L 1662.00 1586.50 L 1657.00 1585.50 L 1653.00 1588.50 Z M 334.00 1580.50 L 325.00 1580.50 L 322.00 1577.50 L 299.00 1577.50 L 287.00 1580.50 L 287.50 1577.00 L 285.00 1574.50 L 279.50 1578.00 L 283.00 1572.50 L 289.00 1570.50 L 296.50 1563.00 L 298.50 1556.00 L 299.50 1436.00 L 296.50 1428.00 L 289.00 1420.50 L 282.00 1419.50 L 280.50 1414.00 L 291.00 1412.50 L 294.00 1415.50 L 301.00 1415.50 L 304.00 1412.50 L 313.00 1412.50 L 316.00 1415.50 L 333.00 1415.50 L 338.00 1412.50 L 344.50 1422.00 L 370.50 1485.00 L 382.50 1512.00 L 386.00 1515.50 L 395.50 1498.00 L 394.50 1496.00 L 430.50 1414.00 L 484.00 1412.50 L 485.50 1418.00 L 472.50 1430.00 L 471.50 1443.00 L 468.50 1447.00 L 471.50 1450.00 L 471.50 1455.00 L 467.50 1459.00 L 471.50 1467.00 L 467.50 1474.00 L 467.50 1480.00 L 470.50 1483.00 L 471.50 1504.00 L 467.50 1506.00 L 467.50 1510.00 L 471.50 1512.00 L 472.50 1552.00 L 484.50 1561.00 L 486.50 1566.00 L 482.00 1568.50 L 420.00 1568.50 L 417.50 1566.00 L 419.00 1562.50 L 430.50 1555.00 L 432.50 1545.00 L 432.50 1480.00 L 429.00 1470.50 L 384.50 1569.00 L 381.00 1572.50 L 368.00 1572.50 L 340.50 1514.00 L 330.50 1491.00 L 331.50 1489.00 L 321.00 1471.50 L 318.50 1474.00 L 318.50 1563.00 L 326.00 1570.50 L 334.50 1574.00 L 334.00 1580.50 Z M 839.00 1570.50 L 807.00 1568.50 L 781.00 1556.50 L 760.50 1535.00 L 750.50 1508.00 L 752.50 1501.00 L 750.50 1477.00 L 756.50 1459.00 L 766.50 1443.00 L 789.00 1424.50 L 812.00 1416.50 L 848.00 1416.50 L 873.00 1426.50 L 892.50 1443.00 L 904.50 1463.00 L 908.50 1476.00 L 908.50 1507.00 L 904.50 1511.00 L 906.50 1516.00 L 894.50 1540.00 L 871.00 1560.50 L 858.00 1566.50 L 844.00 1567.50 L 839.00 1570.50 Z M 557.00 1568.50 L 499.00 1568.50 L 494.50 1566.00 L 494.50 1563.00 L 502.00 1558.50 L 508.50 1549.00 L 508.50 1440.00 L 506.50 1433.00 L 494.50 1423.00 L 496.00 1418.50 L 500.00 1423.50 L 502.50 1421.00 L 500.50 1419.00 L 504.00 1417.50 L 526.00 1417.50 L 530.00 1420.50 L 556.00 1417.50 L 560.50 1419.00 L 560.50 1423.00 L 554.00 1426.50 L 546.50 1435.00 L 546.50 1550.00 L 553.00 1558.50 L 560.50 1563.00 L 557.00 1568.50 Z M 673.00 1568.50 L 586.00 1568.50 L 584.00 1566.50 L 572.00 1568.50 L 566.50 1565.00 L 569.00 1560.50 L 573.00 1565.50 L 575.50 1563.00 L 571.50 1560.00 L 580.50 1552.00 L 580.50 1435.00 L 576.00 1428.50 L 566.50 1423.00 L 568.00 1418.50 L 572.00 1422.50 L 577.00 1418.50 L 584.00 1418.50 L 586.00 1420.50 L 592.00 1418.50 L 602.00 1418.50 L 604.00 1420.50 L 608.00 1418.50 L 615.00 1421.50 L 621.00 1421.50 L 624.00 1417.50 L 634.50 1419.00 L 634.50 1423.00 L 627.00 1426.50 L 620.50 1433.00 L 619.50 1437.00 L 620.50 1548.00 L 623.00 1550.50 L 648.00 1551.50 L 662.00 1543.50 L 668.50 1536.00 L 675.50 1521.00 L 680.00 1519.50 L 682.50 1521.00 L 682.50 1538.00 L 676.50 1566.00 L 673.00 1568.50 Z M 741.00 1568.50 L 689.00 1568.50 L 686.50 1566.00 L 686.50 1563.00 L 696.50 1555.00 L 700.50 1543.00 L 698.50 1536.00 L 698.50 1511.00 L 700.50 1509.00 L 698.50 1507.00 L 698.50 1441.00 L 696.50 1433.00 L 684.50 1424.00 L 685.00 1418.50 L 691.00 1421.50 L 697.00 1418.50 L 700.00 1420.50 L 703.00 1418.50 L 714.00 1418.50 L 716.00 1420.50 L 720.00 1418.50 L 726.00 1420.50 L 734.00 1418.50 L 737.00 1422.50 L 739.00 1418.50 L 742.00 1418.50 L 744.00 1422.50 L 748.00 1418.50 L 750.50 1420.00 L 748.00 1424.50 L 736.50 1433.00 L 735.50 1438.00 L 734.50 1547.00 L 736.50 1553.00 L 749.50 1564.00 L 747.00 1567.50 L 741.00 1568.50 Z M 627.50 1424.00 L 629.50 1422.00 L 627.00 1419.50 L 624.50 1422.00 L 627.50 1424.00 Z M 833.50 1554.00 L 841.00 1552.50 L 851.00 1546.50 L 862.50 1530.00 L 866.50 1515.00 L 866.50 1476.00 L 862.50 1460.00 L 848.00 1438.50 L 835.00 1432.50 L 821.00 1432.50 L 812.00 1436.50 L 802.50 1446.00 L 793.50 1464.00 L 794.50 1471.00 L 789.50 1478.00 L 792.50 1482.00 L 792.50 1504.00 L 790.50 1506.00 L 794.50 1511.00 L 794.50 1520.00 L 798.50 1532.00 L 806.50 1544.00 L 818.00 1552.50 L 833.50 1554.00 Z M 1097.50 1507.00 L 1124.00 1506.50 L 1126.50 1504.00 L 1110.00 1468.50 L 1104.50 1476.00 L 1094.50 1501.00 L 1093.50 1505.00 L 1097.50 1507.00 Z M 1486.50 1508.00 L 1488.50 1505.00 L 1471.00 1468.50 L 1455.50 1506.00 L 1458.00 1508.50 L 1486.50 1508.00 Z" fill="#20473E"/>
  </g>
</svg>
